<svg width="75" height="75" viewBox="0 0 75 75" fill="none" xmlns="http://www.w3.org/2000/svg">
<g clip-path="url(#clip0_46_162)">
<path d="M48.674 19.0835L50.6841 22.3352L72.9731 58.1631C76.284 63.4841 73.86 67.8 67.5339 67.8H7.46592C1.19899 67.8 -1.28414 63.425 2.0267 58.104L31.4103 10.6881C34.7212 5.36714 40.1013 5.36714 43.4121 10.6881L48.674 19.0835Z" fill="#E53935"/>
<path d="M37.4999 50.7728C35.9036 50.7728 34.5438 49.4722 34.5438 47.8167V26.651C34.5438 25.0548 35.9036 23.6949 37.4999 23.6949C39.0962 23.6949 40.456 24.9956 40.456 26.651V47.8167C40.456 49.413 39.0962 50.7728 37.4999 50.7728Z" fill="#F4EFEF"/>
<path d="M37.4408 60.1732C36.6722 60.1732 35.9036 59.8776 35.3715 59.2864C34.8394 58.7543 34.4847 57.9857 34.4847 57.2171C34.4847 56.4485 34.7803 55.6799 35.3715 55.1478C35.9036 54.6157 36.6722 54.261 37.4408 54.261C38.2094 54.261 38.978 54.5566 39.5101 55.1478C40.0422 55.6799 40.3969 56.4485 40.3969 57.2171C40.3969 57.9857 40.1013 58.7543 39.5101 59.2864C38.978 59.8185 38.2094 60.1732 37.4408 60.1732Z" fill="#F4EFEF"/>
<path d="M67.5339 68.8051H7.46588C4.21417 68.8051 1.79017 67.6817 0.666848 65.6125C-0.45647 63.5432 -0.16086 60.7645 1.55368 58.0449L30.9373 10.5107C32.6519 7.732 34.9576 6.19482 37.4999 6.19482C39.983 6.19482 42.2888 7.67287 43.9442 10.3925L49.1469 18.7287L51.1571 21.9804L73.4461 57.9857C75.1606 60.7053 75.4562 63.4841 74.3329 65.5534C73.2096 67.6817 70.7856 68.8051 67.5339 68.8051ZM37.4408 7.37726C35.3715 7.37726 33.4205 8.67795 31.8833 11.102L2.49963 58.6361C1.02158 61.001 0.72597 63.3067 1.67192 65.0213C2.61788 66.7358 4.68715 67.6226 7.46588 67.6226H67.5339C70.3126 67.6226 72.3819 66.6767 73.3278 65.0213C74.2738 63.3658 73.9782 61.001 72.5001 58.6361L50.2111 22.6308L48.201 19.379L42.9982 11.0428C41.4611 8.67795 39.51 7.37726 37.4408 7.37726Z" fill="black"/>
<path d="M36.9087 51.3641C34.9577 51.3641 33.3614 49.7678 33.3614 47.8168V26.6511C33.3614 24.7001 34.9577 23.1038 36.9087 23.1038C38.8597 23.1038 40.456 24.7001 40.456 26.6511V47.8168C40.456 49.7678 38.8597 51.3641 36.9087 51.3641ZM36.9087 24.2862C35.608 24.2862 34.5438 25.3504 34.5438 26.6511V47.8168C34.5438 49.1175 35.608 50.1817 36.9087 50.1817C38.2094 50.1817 39.2736 49.1175 39.2736 47.8168V26.6511C39.2736 25.3504 38.2094 24.2862 36.9087 24.2862Z" fill="black"/>
<path d="M36.9087 60.7644C35.9628 60.7644 35.0759 60.4097 34.4256 59.7593C33.7753 59.109 33.4205 58.163 33.4205 57.2762C33.4205 56.3303 33.7753 55.4434 34.4256 54.7931C35.0759 54.1427 36.0219 53.7289 36.9087 53.7289C37.8547 53.7289 38.7415 54.0836 39.3919 54.7931C40.0422 55.4434 40.4561 56.3303 40.4561 57.2762C40.4561 58.2222 40.1013 59.109 39.3919 59.7593C38.7415 60.3506 37.8547 60.7644 36.9087 60.7644ZM36.9087 54.8522C36.3175 54.8522 35.6672 55.0887 35.2533 55.5617C34.8395 55.9755 34.5439 56.6259 34.5439 57.2171C34.5439 57.8674 34.7803 58.4586 35.2533 58.8725C35.6672 59.2864 36.3175 59.582 36.9087 59.582C37.5 59.582 38.1503 59.3455 38.5641 58.8725C38.978 58.4586 39.2736 57.8083 39.2736 57.2171C39.2736 56.6259 39.0371 55.9755 38.5641 55.5617C38.1503 55.0887 37.5 54.8522 36.9087 54.8522Z" fill="black"/>
</g>
<defs>
<clipPath id="clip0_46_162">
<rect width="75" height="75" fill="white"/>
</clipPath>
</defs>
</svg>
