<svg width="30" height="30" viewBox="0 0 30 30" fill="none" xmlns="http://www.w3.org/2000/svg">
<path d="M15 2.5C8.09625 2.5 2.5 8.09625 2.5 15C2.5 21.9037 8.09625 27.5 15 27.5C21.9037 27.5 27.5 21.9037 27.5 15C27.5 8.09625 21.9037 2.5 15 2.5Z" fill="url(#paint0_linear_5_35)"/>
<path d="M16.6919 18.3131H19.9269L20.435 15.0269H16.6919V13.2306C16.6919 11.8656 17.1381 10.655 18.415 10.655H20.4669V7.78751C20.1063 7.73876 19.3438 7.63251 17.9031 7.63251C14.8944 7.63251 13.1306 9.22126 13.1306 12.8413V15.0275H10.0375V18.3138H13.13V27.3463C13.7425 27.4375 14.3631 27.5 15 27.5C15.5756 27.5 16.1375 27.4475 16.6919 27.3725V18.3131Z" fill="white"/>
<defs>
<linearGradient id="paint0_linear_5_35" x1="6.24562" y1="6.24562" x2="25.3844" y2="25.3844" gradientUnits="userSpaceOnUse">
<stop stop-color="#2AA4F4"/>
<stop offset="1" stop-color="#007AD9"/>
</linearGradient>
</defs>
</svg>
